<svg id="Layer_2" data-name="Layer 2" xmlns="http://www.w3.org/2000/svg" width="64" height="74.5" viewBox="0 0 64 74.5"><defs><style>.cls-1{font-size:16px;font-family:Phenomena-Bold, Phenomena;font-weight:700;}.cls-2{letter-spacing:-0.01em;}.cls-3{letter-spacing:0em;}</style></defs><title>logo final</title><text class="cls-1" transform="translate(2.75 70.55)">ART G<tspan class="cls-2" x="30.4" y="0">R</tspan><tspan x="37.41" y="0">O</tspan><tspan class="cls-3" x="44.43" y="0">U</tspan><tspan x="51.66" y="0">P</tspan></text><path d="M63.24,28.91a3.4,3.4,0,0,1-.32.63c-.84,1.38-1.64,2.79-2.44,4.2l-2.41,4.2-2.72,4.72q-1.85,3.2-3.68,6.39L49,53.61,49,53.8a1,1,0,0,1-.58.55,3,3,0,0,1-.93.17c-.34,0-.67,0-1,0a4.73,4.73,0,0,1-.93-.09,1.81,1.81,0,0,1-1.29-.89L43.91,53a.3.3,0,0,1,0-.33l.78-1.38,2.21-3.94,1.85-3.31c.72-1.27,1.43-2.54,2.14-3.81,1-1.78,2-3.54,3-5.31,1.16-2,2.33-4,3.49-6.07.3-.51.61-1,.88-1.56a1.13,1.13,0,0,1,.81-.6,4.16,4.16,0,0,1,.79-.09,8.54,8.54,0,0,1,1.89.12A1.73,1.73,0,0,1,63.23,28a0,0,0,0,0,0,0Z"/><path d="M.8,27.39a.24.24,0,0,0,.09-.13.8.8,0,0,1,.43-.42,2,2,0,0,1,.69-.2,10.82,10.82,0,0,1,1.8,0,2.6,2.6,0,0,1,1,.25,1.88,1.88,0,0,1,.76.72l2.68,4.66,2.58,4.48c.78,1.36,1.57,2.72,2.33,4.09l2.49,4.44L18,49.36l2.14,3.86a.71.71,0,0,1-.2,1,1.35,1.35,0,0,1-.43.22,3.09,3.09,0,0,1-.86.13c-.4,0-.8,0-1.21,0a2.93,2.93,0,0,1-1-.21,1.76,1.76,0,0,1-.92-.78c-.4-.71-.81-1.42-1.22-2.12l-2.34-4.07L9.38,43,5.82,36.83,2.63,31.28,1.09,28.62a2.1,2.1,0,0,1-.2-.49c0-.06,0-.13-.09-.16Z"/><path d="M17.26,1.69a6.4,6.4,0,0,1,1.16.06,2.17,2.17,0,0,1,1.13.51,1.9,1.9,0,0,1,.34.41c.36.54.67,1.11,1,1.68L24,9.75l3.82,6.59L32.25,24l3.87,6.69,4.31,7.44c.82,1.42,1.64,2.83,2.45,4.25.42.72.81,1.45,1.22,2.17a.27.27,0,0,1,0,.31l-1.25,2.22c-.34.61-.68,1.22-1,1.83,0,.06,0,.14-.11.14S41.63,49,41.6,49L39,44.44c-1.07-1.86-2.16-3.71-3.23-5.57q-1.95-3.34-3.88-6.69l-4.29-7.42-4-6.85c-.81-1.41-1.59-2.83-2.38-4.24s-1.66-2.94-2.48-4.42S17,6.18,16.17,4.64l-1-1.71a.37.37,0,0,1-.05-.27.91.91,0,0,1,.55-.78,2.65,2.65,0,0,1,.92-.19C16.84,1.68,17.05,1.69,17.26,1.69Z"/><path d="M43.93,20.08V4.13c0-.27,0-.55,0-.82A2.64,2.64,0,0,1,44,2.57a.88.88,0,0,1,.6-.71,2.62,2.62,0,0,1,.66-.15c.44,0,.88,0,1.31,0a4.91,4.91,0,0,1,.85.09,1.93,1.93,0,0,1,1.56,1.61A4.36,4.36,0,0,1,49,4.53a2,2,0,0,0,0,.34,1.62,1.62,0,0,1,0,.22V35.9a.88.88,0,0,1-.11.45q-1.26,2.22-2.5,4.44c0,.05,0,.13-.1.13s-.09-.08-.12-.13L44,36.93a.53.53,0,0,1-.08-.27V20.08Z"/><path d="M15.17,10.4c.07,0,.08.09.11.14l3.28,5.85,1.56,2.77a.77.77,0,0,1,.09.36c0,.82,0,1.65,0,2.48V45.48a.47.47,0,0,1,0,.26.31.31,0,0,1-.12-.16L19,43.63l-1.71-3c-.63-1.12-1.24-2.24-1.88-3.35a1.79,1.79,0,0,1-.24-.93q0-12.81,0-25.63A.55.55,0,0,1,15.17,10.4Z"/></svg>